<svg xmlns="http://www.w3.org/2000/svg" xmlns:xlink="http://www.w3.org/1999/xlink" version="1.1" width="256" height="256" viewBox="0 0 256 256" xml:space="preserve">
<desc>Created with Fabric.js 1.7.22</desc>
<defs>
</defs>
<g transform="translate(128 128) scale(0.72 0.72)" style="">
	<g style="stroke: none; stroke-width: 0; stroke-dasharray: none; stroke-linecap: butt; stroke-linejoin: miter; stroke-miterlimit: 10; fill: none; fill-rule: nonzero; opacity: 1;" transform="translate(-175.05 -175.05000000000004) scale(3.89 3.89)" >
	<path d="M 49.449 20.795 H 7.805 c -0.829 0 -1.5 -0.671 -1.5 -1.5 s 0.671 -1.5 1.5 -1.5 h 41.644 c 0.828 0 1.5 0.671 1.5 1.5 S 50.277 20.795 49.449 20.795 z" style="stroke: none; stroke-width: 1; stroke-dasharray: none; stroke-linecap: butt; stroke-linejoin: miter; stroke-miterlimit: 10; fill: rgb(0,0,0); fill-rule: nonzero; opacity: 1;" transform=" matrix(1 0 0 1 0 0) " stroke-linecap="round" />
	<path d="M 82.194 20.795 h -3.771 c -0.828 0 -1.5 -0.671 -1.5 -1.5 s 0.672 -1.5 1.5 -1.5 h 3.771 c 0.828 0 1.5 0.671 1.5 1.5 S 83.022 20.795 82.194 20.795 z" style="stroke: none; stroke-width: 1; stroke-dasharray: none; stroke-linecap: butt; stroke-linejoin: miter; stroke-miterlimit: 10; fill: rgb(0,0,0); fill-rule: nonzero; opacity: 1;" transform=" matrix(1 0 0 1 0 0) " stroke-linecap="round" />
	<path d="M 73.297 20.795 h -3.771 c -0.828 0 -1.5 -0.671 -1.5 -1.5 s 0.672 -1.5 1.5 -1.5 h 3.771 c 0.828 0 1.5 0.671 1.5 1.5 S 74.125 20.795 73.297 20.795 z" style="stroke: none; stroke-width: 1; stroke-dasharray: none; stroke-linecap: butt; stroke-linejoin: miter; stroke-miterlimit: 10; fill: rgb(0,0,0); fill-rule: nonzero; opacity: 1;" transform=" matrix(1 0 0 1 0 0) " stroke-linecap="round" />
	<path d="M 46.886 79.402 h -3.771 c -0.829 0 -1.5 -0.672 -1.5 -1.5 s 0.671 -1.5 1.5 -1.5 h 3.771 c 0.828 0 1.5 0.672 1.5 1.5 S 47.714 79.402 46.886 79.402 z" style="stroke: none; stroke-width: 1; stroke-dasharray: none; stroke-linecap: butt; stroke-linejoin: miter; stroke-miterlimit: 10; fill: rgb(0,0,0); fill-rule: nonzero; opacity: 1;" transform=" matrix(1 0 0 1 0 0) " stroke-linecap="round" />
	<path d="M 84.968 10.598 H 5.032 C 2.257 10.598 0 12.855 0 15.63 v 58.74 c 0 2.774 2.257 5.032 5.032 5.032 h 31.142 c 0.829 0 1.5 -0.672 1.5 -1.5 s -0.671 -1.5 -1.5 -1.5 H 5.032 C 3.912 76.402 3 75.49 3 74.37 V 26.743 h 84 V 74.37 c 0 1.12 -0.912 2.032 -2.032 2.032 H 53.825 c -0.828 0 -1.5 0.672 -1.5 1.5 s 0.672 1.5 1.5 1.5 h 31.143 c 2.774 0 5.032 -2.258 5.032 -5.032 V 15.63 C 90 12.855 87.742 10.598 84.968 10.598 z M 3 23.743 V 15.63 c 0 -1.121 0.912 -2.032 2.032 -2.032 h 79.936 c 1.12 0 2.032 0.912 2.032 2.032 v 8.113 H 3 z" style="stroke: none; stroke-width: 1; stroke-dasharray: none; stroke-linecap: butt; stroke-linejoin: miter; stroke-miterlimit: 10; fill: rgb(0,0,0); fill-rule: nonzero; opacity: 1;" transform=" matrix(1 0 0 1 0 0) " stroke-linecap="round" />
	<path d="M 45 68.488 c -9.136 0 -16.568 -7.432 -16.568 -16.567 S 35.864 35.353 45 35.353 s 16.568 7.433 16.568 16.568 S 54.136 68.488 45 68.488 z M 45 38.353 c -7.481 0 -13.568 6.087 -13.568 13.568 S 37.519 65.488 45 65.488 s 13.568 -6.086 13.568 -13.567 S 52.481 38.353 45 38.353 z" style="stroke: none; stroke-width: 1; stroke-dasharray: none; stroke-linecap: butt; stroke-linejoin: miter; stroke-miterlimit: 10; fill: rgb(0,0,0); fill-rule: nonzero; opacity: 1;" transform=" matrix(1 0 0 1 0 0) " stroke-linecap="round" />
	<path d="M 41.583 60.328 c -0.018 0 -0.035 0 -0.053 -0.001 c -0.426 -0.015 -0.826 -0.211 -1.099 -0.539 l -4.714 -5.657 c -0.53 -0.636 -0.444 -1.582 0.192 -2.112 c 0.638 -0.53 1.583 -0.445 2.113 0.192 l 3.642 4.369 L 52.05 45.769 c 0.575 -0.597 1.524 -0.616 2.121 -0.042 c 0.598 0.574 0.616 1.523 0.043 2.121 l -11.55 12.021 C 42.381 60.162 41.99 60.328 41.583 60.328 z" style="stroke: none; stroke-width: 1; stroke-dasharray: none; stroke-linecap: butt; stroke-linejoin: miter; stroke-miterlimit: 10; fill: rgb(0,0,0); fill-rule: nonzero; opacity: 1;" transform=" matrix(1 0 0 1 0 0) " stroke-linecap="round" />
</g>
</g>
</svg>